<?xml version="1.0" encoding="UTF-8"?>
<svg width="597.09" height="238.63" version="1.1" viewBox="0 0 597.09332 238.62666" xml:space="preserve" xmlns="http://www.w3.org/2000/svg" xmlns:cc="http://creativecommons.org/ns#" xmlns:dc="http://purl.org/dc/elements/1.1/" xmlns:rdf="http://www.w3.org/1999/02/22-rdf-syntax-ns#"><metadata><rdf:RDF><cc:Work rdf:about=""><dc:format>image/svg+xml</dc:format><dc:type rdf:resource="http://purl.org/dc/dcmitype/StillImage"/></cc:Work></rdf:RDF></metadata><g transform="matrix(1.3333 0 0 -1.3333 0 238.63)"><g transform="scale(.1)" fill="#231f20"><path d="m31.172 764.59h3178.2c17.21 0 31.13-13.852 31.13-30.871 0-17.059-13.92-30.867-31.13-30.867h-3178.2c-17.207 0-31.172 13.808-31.172 30.867 0 17.019 13.965 30.871 31.172 30.871"/><path d="m31.172 1789.7h3178.2c17.21 0 31.13-13.82 31.13-30.85 0-17.06-13.92-30.88-31.13-30.88h-3178.2c-17.207 0-31.172 13.82-31.172 30.88 0 17.03 13.965 30.85 31.172 30.85"/><path d="m3221.1 1555.2c-69.45 48.46-143.5 66.47-220.41 65.14-217.44-3.8-372.97-174.63-375-373.82-2.05-201.94 150.27-362.86 374.77-373.17 76.83-3.516 166.83 17.91 235.86 69.965l-53.27 85.647c-69.04-59.112-126.79-74.397-186.68-61.292-119.08 26.047-200.52 149.44-195.97 278.85 1.89 53 9.57 104.31 30.13 147.94 37.43 79.27 89.73 120.34 163.5 131.9 64.18 10.06 117.97 0.92 175.7-51.11zm-945.43-50.52c-15.8 0.92 84.18 1.7 84.18-101.97 0-108.79-85.74-109.23-85.74-109.23h-126.57v211.31zm-300.52 101.7v-718.66h172.28v298.53l209.26-302.75h220.35l-238.32 321.79s180.91 7.8 192.38 172.66c11.41 164.87-108.52 228.3-259.12 228.3zm-149.9-47.95c-15.86 9.05-134.81 60.14-226.62 60.14-171.18 0-284.64-90.05-281.39-221.11 5.99-242.14 395.4-205.77 375.93-358.39-13.83-108.48-279.56-84.507-370.61 5.49l-24.5-105.96c148.58-96.297 517.77-105.67 541.54 138.46 24.06 246.73-382.32 248.15-382.32 369.53 0 58.59 54.26 85.02 146.45 82.56 120.34-3.2 159.22-54.86 184.24-68.7zm-858.59-53.45c90.999-7.86 87.769-107.76 87.769-107.76-3.9-99.92-83.128-104.2-83.128-104.2h-129.19v211.96zm-297.02 101.08v-718.59h172.26v313.71h131.73c6.144 0 257.17-10.8 253.03 197.89 0 0 18.83 202.78-254.34 206.99zm-657.45-79.25c13.984 79.28 84.289 79.28 84.289 79.28h418.02v-101.2h-328.98v-212.2h304.43v-91.69h-304.43v-212.18h328.98v-101.2h-410.09c-85.644 0-92.336 82.691-92.336 82.691l0.1171 556.49"/><path d="m14.953 331.79v213.61h132.6v-20.398h-109.8v-75.301h93.598v-20.41h-93.598v-77.09h109.8v-20.41h-132.6"/><path d="m282.55 331.79v90.902c0 26.11-14.098 39.309-36.301 39.309s-36.602-13.512-36.602-39.309v-90.902h-21.597v147.6h21.597v-16.2c10.504 12 24.903 18.008 41.403 18.008 15.898 0 28.797-4.808 37.801-13.801 10.5-10.199 15.3-24 15.3-41.097v-94.512h-21.601"/><path d="m404.35 462c-32.102 0-36.899-27.609-36.899-55.211 0-27.59 4.797-55.187 36.899-55.187 32.097 0 36.601 27.597 36.601 55.187 0 27.602-4.504 55.211-36.601 55.211zm-3.301-198.01c-22.199 0-34.496 5.711-50.098 19.813l14.098 13.789c10.801-9.59 18.301-14.692 35.398-14.692 28.5 0 40.504 20.102 40.504 45.293v23.11c-12.004-15.313-25.504-19.199-41.402-19.199-15 0-27.899 5.398-35.699 13.187-14.7 14.711-18 37.5-18 61.5 0 24.012 3.3 46.801 18 61.512 7.8 7.789 20.996 12.898 35.996 12.898 16.203 0 29.406-3.609 41.402-19.199v17.391h21.301v-152.1c0-36.598-22.801-63.301-61.5-63.301"/><path d="m513.55 331.79v147.6h21.597v-147.6zm-1.203 189.6v24.308h24.304v-24.308h-24.304"/><path d="m680.95 331.79v90.902c0 26.11-14.097 39.309-36.301 39.309-22.203 0-36.601-13.512-36.601-39.309v-90.902h-21.598v147.6h21.598v-16.2c10.504 12 24.902 18.008 41.402 18.008 15.899 0 28.797-4.808 37.801-13.801 10.5-10.199 15.301-24 15.301-41.097v-94.512h-21.602"/><path d="m839.04 440.69c-5.703 13.508-18.895 22.207-34.5 22.207-15.598 0-28.801-8.699-34.492-22.207-3.301-8.101-3.906-12.601-4.504-24.601h78c-0.598 12-1.203 16.5-4.504 24.601zm-73.496-40.793c0-32.398 15.293-51.007 43.496-51.007 17.102 0 27.004 5.097 38.703 16.8l14.695-12.902c-15-15-28.796-22.789-53.992-22.789-39.004 0-64.504 23.398-64.504 75.59 0 47.711 23.098 75.609 60.598 75.609 38.105 0 60.605-27.609 60.605-71.41v-9.891h-99.601"/><path d="m995.05 440.69c-5.703 13.508-18.906 22.207-34.504 22.207-15.606 0-28.797-8.699-34.5-22.207-3.301-8.101-3.899-12.601-4.504-24.601h78c-0.598 12-1.191 16.5-4.492 24.601zm-73.508-40.793c0-32.398 15.305-51.007 43.508-51.007 17.097 0 26.992 5.097 38.699 16.8l14.7-12.902c-15-15-28.802-22.789-54.005-22.789-38.996 0-64.504 23.398-64.504 75.59 0 47.711 23.106 75.609 60.606 75.609 38.098 0 60.593-27.609 60.593-71.41v-9.891h-99.597"/><path d="m1146.5 451.2c-8.1 8.09-14.1 10.801-25.5 10.801-21.6 0-35.4-17.102-35.4-39.602v-90.609h-21.6v147.6h21.6v-18c8.1 12.308 24.3 19.808 41.4 19.808 14.1 0 24.9-3.301 35.4-13.801l-15.9-16.199"/><path d="m1187.3 331.79v147.6h21.61v-147.6zm-1.2 189.6v24.308h24.3v-24.308h-24.3"/><path d="m1354.8 331.79v90.902c0 26.11-14.11 39.309-36.3 39.309-22.21 0-36.6-13.512-36.6-39.309v-90.902h-21.61v147.6h21.61v-16.2c10.49 12 24.89 18.008 41.39 18.008 15.9 0 28.8-4.808 37.8-13.801 10.5-10.199 15.31-24 15.31-41.097v-94.512h-21.6"/><path d="m1476.5 462c-32.11 0-36.9-27.609-36.9-55.211 0-27.59 4.79-55.187 36.9-55.187 32.1 0 36.59 27.597 36.59 55.187 0 27.602-4.49 55.211-36.59 55.211zm-3.3-198.01c-22.2 0-34.5 5.711-50.11 19.813l14.11 13.789c10.8-9.59 18.3-14.692 35.4-14.692 28.5 0 40.49 20.102 40.49 45.293v23.11c-11.99-15.313-25.49-19.199-41.39-19.199-15 0-27.9 5.398-35.7 13.187-14.7 14.711-18 37.5-18 61.5 0 24.012 3.3 46.801 18 61.512 7.8 7.789 21 12.898 36 12.898 16.2 0 29.4-3.609 41.4-19.199v17.391h21.3v-152.1c0-36.598-22.8-63.301-61.5-63.301"/><path d="m1741.1 399.9h-41.4c-22.2 0-33-9-33-26.097 0-17.102 10.5-25.211 33.9-25.211 12.6 0 23.7 0.898 33 9.898 5.1 4.813 7.5 13.211 7.5 25.5zm0-68.109v14.109c-12-12.007-22.8-15.898-42.6-15.898-20.41 0-32.4 3.891-41.7 13.488-7.2 7.203-11.1 18.301-11.1 30 0 25.801 18 42.602 51 42.602h44.4v14.101c0 21.598-10.8 32.399-37.8 32.399-18.9 0-28.5-4.5-37.2-16.789l-14.7 13.488c13.2 17.102 28.2 21.91 52.2 21.91 39.6 0 59.1-17.097 59.1-49.199v-100.21h-21.6"/><path d="m1906.7 331.79v90.902c0 26.11-14.1 39.309-36.3 39.309-22.21 0-36.6-13.512-36.6-39.309v-90.902h-21.6v147.6h21.6v-16.2c10.5 12 24.89 18.008 41.39 18.008 15.9 0 28.8-4.808 37.81-13.801 10.5-10.199 15.3-24 15.3-41.097v-94.512h-21.6"/><path d="m2028.8 462c-32.1 0-37.2-27.609-37.2-56.41s5.1-56.391 37.2-56.391 36.9 27.59 36.9 56.391-4.8 56.41-36.9 56.41zm37.21-130.21v17.699c-12.01-15.597-25.81-19.488-42.01-19.488-15 0-28.2 5.09-36 12.898-15 15-18 39.602-18 62.692 0 23.109 3 47.711 18 62.711 7.8 7.789 21 12.898 36 12.898 16.2 0 29.7-3.609 41.7-18.91v83.109h21.6v-213.61h-21.29"/><path d="m2291.3 525h-54.61v-84.91h54.61c26.7 0 45.3 14.41 45.3 42.601 0 28.207-18.6 42.309-45.3 42.309zm2.09-105.3h-56.7v-87.91h-22.79v213.61h79.49c39.01 0 66-24.308 66-62.707 0-38.402-26.99-62.992-66-62.992"/><path d="m2490.5 331.79v91.211c0 25.801-13.81 39-36.01 39-22.19 0-36.9-13.512-36.9-39v-91.211h-21.6v213.61h21.6v-82.207c10.8 12.309 24.9 18.008 41.41 18.008 33.3 0 53.1-21.301 53.1-54.597v-94.813h-21.6"/><path d="m2598.2 296.09c-3.01-8.09-6.31-13.5-10.51-17.391-7.79-7.5-18.3-10.211-28.81-10.211h-9.3v19.203h6.61c15 0 19.51 4.809 24.29 18.297l10.51 28.801-53.1 144.6h23.39l40.51-118.49 40.2 118.49h23.4l-67.19-183.3"/><path d="m2739.2 330c-24.9 0-44.39 5.691-60.6 21.301l14.41 14.39c11.7-12.293 27.6-17.101 45.9-17.101 24.3 0 39.3 8.699 39.3 26.109 0 12.891-7.5 20.09-24.61 21.602l-24.3 2.097c-28.79 2.403-44.1 15.301-44.1 39.602 0 27 22.81 43.199 54.3 43.199 21.01 0 39.9-5.109 53.1-15.91l-14.1-14.09c-10.49 8.09-24 11.699-39.3 11.699-21.6 0-33-9.308-33-24.308 0-12.602 7.2-20.102 25.8-21.59l23.71-2.102c25.8-2.398 43.49-12.308 43.49-39.898 0-28.512-24.29-45-60-45"/><path d="m2838.5 331.79v147.6h21.6v-147.6zm-1.21 189.6v24.308h24.3v-24.308h-24.3"/><path d="m2968.7 330c-37.21 0-65.41 25.191-65.41 75.59 0 50.398 28.2 75.609 65.41 75.609 20.39 0 33.3-5.398 48.59-21.91l-14.69-13.789c-11.11 12.289-19.8 16.5-33.9 16.5-14.4 0-26.41-5.699-34.2-16.809-6.9-9.601-9.61-20.992-9.61-39.601 0-18.59 2.71-30 9.61-39.602 7.79-11.097 19.8-16.789 34.2-16.789 14.1 0 22.79 4.5 33.9 16.789l14.69-14.097c-15.29-16.493-28.2-21.891-48.59-21.891"/><path d="m3135.5 399.9h-41.41c-22.21 0-33.01-9-33.01-26.097 0-17.102 10.51-25.211 33.91-25.211 12.59 0 23.69 0.898 33.01 9.898 5.09 4.813 7.5 13.211 7.5 25.5zm0-68.109v14.109c-12.02-12.007-22.82-15.898-42.62-15.898-20.39 0-32.38 3.891-41.7 13.488-7.19 7.203-11.1 18.301-11.1 30 0 25.801 18.01 42.602 51 42.602h44.42v14.101c0 21.598-10.81 32.399-37.82 32.399-18.89 0-28.49-4.5-37.18-16.789l-14.71 13.488c13.2 17.102 28.2 21.91 52.21 21.91 39.58 0 59.1-17.097 59.1-49.199v-100.21h-21.6"/><path d="m3243.4 331.79c-25.8 0-37.5 16.801-37.5 39.301v174.31h21.6v-173.4c0-14.41 4.81-21.602 19.81-21.602h11.7v-18.609h-15.61"/><path d="m3423.2 330c-32.11 0-53.11 8.09-73.2 28.191l15.6 15.61c17.7-17.711 34.2-23.403 58.19-23.403 31.21 0 50.41 14.692 50.41 39.602 0 11.09-3.3 20.691-10.2 26.699-6.91 5.992-12.3 7.801-27.91 10.192l-24.9 3.91c-16.8 2.687-30 8.09-39.3 16.199-10.8 9.602-16.19 22.789-16.19 39.891 0 36.308 26.09 60.3 68.4 60.3 27.3 0 45.29-6.89 63.59-23.39l-14.68-14.699c-13.21 11.988-27.31 18.296-49.81 18.296-28.5 0-45-15.91-45-39.597 0-10.512 2.99-18.91 9.59-24.61 6.6-5.691 17.69-9.89 28.81-11.703l23.4-3.59c20.09-3 30-7.207 39-15 11.7-9.898 17.99-24.597 17.99-42.308 0-37.5-29.4-60.59-73.79-60.59"/><path d="m3595 330c-37.2 0-65.41 25.191-65.41 75.59 0 50.398 28.21 75.609 65.41 75.609 20.39 0 33.31-5.398 48.6-21.91l-14.69-13.789c-11.11 12.289-19.8 16.5-33.91 16.5-14.39 0-26.4-5.699-34.19-16.809-6.9-9.601-9.61-20.992-9.61-39.601 0-18.59 2.71-30 9.61-39.602 7.79-11.097 19.8-16.789 34.19-16.789 14.11 0 22.8 4.5 33.91 16.789l14.69-14.097c-15.29-16.493-28.21-21.891-48.6-21.891"/><path d="m3681.7 331.79v147.6h21.61v-147.6zm-1.21 189.6v24.308h24.3v-24.308h-24.3"/><path d="m3841.6 440.69c-5.71 13.508-18.91 22.207-34.52 22.207-15.6 0-28.78-8.699-34.49-22.207-3.3-8.101-3.9-12.601-4.51-24.601h78.01c-0.61 12-1.19 16.5-4.49 24.601zm-73.52-40.793c0-32.398 15.31-51.007 43.52-51.007 17.09 0 26.99 5.097 38.69 16.8l14.7-12.902c-15-15-28.8-22.789-54-22.789-39 0-64.51 23.398-64.51 75.59 0 47.711 23.1 75.609 60.6 75.609 38.11 0 60.61-27.609 60.61-71.41v-9.891h-99.61"/><path d="m4005.1 331.79v90.902c0 26.11-14.1 39.309-36.31 39.309-22.2 0-36.6-13.512-36.6-39.309v-90.902h-21.6v147.6h21.6v-16.2c10.51 12 24.9 18.008 41.41 18.008 15.9 0 28.79-4.808 37.79-13.801 10.51-10.199 15.31-24 15.31-41.097v-94.512h-21.6"/><path d="m4133.5 330c-37.19 0-65.39 25.191-65.39 75.59 0 50.398 28.2 75.609 65.39 75.609 20.41 0 33.3-5.398 48.61-21.91l-14.7-13.789c-11.1 12.289-19.81 16.5-33.91 16.5-14.39 0-26.39-5.699-34.2-16.809-6.89-9.601-9.59-20.992-9.59-39.601 0-18.59 2.7-30 9.59-39.602 7.81-11.097 19.81-16.789 34.2-16.789 14.1 0 22.81 4.5 33.91 16.789l14.7-14.097c-15.31-16.493-28.2-21.891-48.61-21.891"/><path d="m4302.7 440.69c-5.7 13.508-18.91 22.207-34.51 22.207-15.61 0-28.79-8.699-34.49-22.207-3.3-8.101-3.91-12.601-4.52-24.601h78.01c-0.6 12-1.19 16.5-4.49 24.601zm-73.52-40.793c0-32.398 15.32-51.007 43.52-51.007 17.09 0 26.99 5.097 38.69 16.8l14.71-12.902c-15-15-28.81-22.789-54-22.789-39.01 0-64.52 23.398-64.52 75.59 0 47.711 23.11 75.609 60.61 75.609 38.1 0 60.6-27.609 60.6-71.41v-9.891h-99.61"/><path d="m4418.2 330c-24.9 0-44.4 5.691-60.61 21.301l14.42 14.39c11.7-12.293 27.6-17.101 45.9-17.101 24.29 0 39.29 8.699 39.29 26.109 0 12.891-7.5 20.09-24.61 21.602l-24.29 2.097c-28.79 2.403-44.11 15.301-44.11 39.602 0 27 22.82 43.199 54.3 43.199 21.02 0 39.9-5.109 53.11-15.91l-14.1-14.09c-10.49 8.09-24.01 11.699-39.3 11.699-21.6 0-33.01-9.308-33.01-24.308 0-12.602 7.21-20.102 25.8-21.59l23.71-2.102c25.8-2.398 43.5-12.308 43.5-39.898 0-28.512-24.3-45-60-45"/><path d="m94.758 195h-57.004v-78.301h57.004c24.894 0 42.597 12.903 42.597 38.992 0 26.098-17.703 39.309-42.597 39.309zm42.898-193.21-48.601 94.813h-51.301v-94.813h-22.801v213.61h81.902c37.2 0 63.3-22.5 63.3-59.41 0-31.199-18.902-51.597-46.504-57.289l50.703-96.91h-26.699"/><path d="m291.85 110.69c-5.7 13.508-18.899 22.207-34.497 22.207-15.601 0-28.804-8.699-34.503-22.207-3.301-8.101-3.903-12.601-4.5-24.601h78c-0.598 12-1.2 16.5-4.5 24.601zm-73.5-40.793c0-32.398 15.3-51.008 43.5-51.008 17.097 0 27 5.0977 38.699 16.801l14.703-12.902c-15-15-28.805-22.789-54.004-22.789-39 0-64.496 23.398-64.496 75.59 0 47.711 23.101 75.609 60.601 75.609 38.098 0 60.598-27.609 60.598-71.41v-9.8907h-99.601"/><path d="m407.35 0c-24.903 0-44.399 5.6914-60.598 21.301l14.398 14.391c11.7-12.293 27.602-17.102 45.899-17.102 24.301 0 39.301 8.6993 39.301 26.109 0 12.891-7.5 20.09-24.598 21.602l-24.305 2.0976c-28.797 2.4024-44.093 15.301-44.093 39.602 0 27 22.796 43.199 54.296 43.199 21 0 39.903-5.109 53.098-15.91l-14.094-14.09c-10.504 8.09-24.004 11.699-39.304 11.699-21.602 0-33-9.308-33-24.308 0-12.602 7.199-20.102 25.8-21.59l23.7-2.1016c25.8-2.3984 43.5-12.309 43.5-39.898 0-28.512-24.301-45-60-45"/><path d="m593.64 110.69c-5.7 13.508-18.899 22.207-34.5 22.207-15.598 0-28.801-8.699-34.5-22.207-3.301-8.101-3.903-12.601-4.504-24.601h78.004c-0.602 12-1.2 16.5-4.5 24.601zm-73.504-40.793c0-32.398 15.304-51.008 43.504-51.008 17.097 0 27 5.0977 38.699 16.801l14.703-12.902c-15-15-28.805-22.789-54.004-22.789-39 0-64.496 23.398-64.496 75.59 0 47.711 23.098 75.609 60.598 75.609 38.101 0 60.601-27.609 60.601-71.41v-9.8907h-99.605"/><path d="m746.35 69.898h-41.403c-22.199 0-33-9-33-26.098 0-17.102 10.5-25.211 33.899-25.211 12.605 0 23.703 0.8985 33.004 9.8985 5.097 4.8125 7.5 13.211 7.5 25.5zm0-68.109v14.109c-12-12.008-22.801-15.898-42.602-15.898-20.402 0-32.402 3.8906-41.699 13.488-7.203 7.2031-11.106 18.301-11.106 30 0 25.801 18.004 42.602 51.004 42.602h44.403v14.101c0 21.598-10.801 32.399-37.801 32.399-18.902 0-28.504-4.5-37.203-16.789l-14.699 13.488c13.199 17.102 28.199 21.91 52.199 21.91 39.605 0 59.105-17.097 59.105-49.199v-100.21h-21.601"/><path d="m899.94 121.2c-8.105 8.09-14.101 10.801-25.496 10.801-21.601 0-35.402-17.102-35.402-39.602v-90.609h-21.602v147.6h21.602v-18c8.098 12.308 24.297 19.808 41.398 19.808 14.102 0 24.903-3.301 35.399-13.801l-15.899-16.199"/><path d="m987.78 0c-37.199 0-65.402 25.191-65.402 75.59 0 50.398 28.203 75.609 65.402 75.609 20.395 0 33.295-5.398 48.605-21.91l-14.7-13.789c-11.1 12.289-19.81 16.5-33.905 16.5-14.394 0-26.398-5.699-34.199-16.809-6.895-9.601-9.602-20.992-9.602-39.601 0-18.59 2.707-30 9.602-39.602 7.801-11.098 19.805-16.789 34.199-16.789 14.095 0 22.805 4.5 33.905 16.789l14.7-14.098c-15.31-16.492-28.21-21.891-48.605-21.891"/><path d="m1169 1.7891v91.211c0 25.801-13.79 39-36 39-22.2 0-36.9-13.512-36.9-39v-91.211h-21.6v213.61h21.6v-82.207c10.8 12.309 24.9 18.008 41.4 18.008 33.3 0 53.11-21.301 53.11-54.597v-94.813h-21.61"/><path d="m1382.3 0c-21 0-40.2 7.7891-54.6 22.199-20.1 20.09-20.1 41.102-20.1 86.391 0 45.301 0 66.308 20.1 86.41 14.4 14.391 33.6 22.199 54.6 22.199 38.39 0 66.9-23.398 74.1-63.609h-23.4c-5.7 26.109-24.01 43.199-50.7 43.199-14.11 0-27.6-5.398-36.91-15-13.49-13.789-15-28.488-15-73.199 0-44.699 1.51-59.391 15-73.192 9.31-9.5976 22.8-15 36.91-15 26.69 0 45.6 17.102 51.29 43.191h22.81c-6.91-40.191-36-63.59-74.1-63.59"/><path d="m1579.4 121.2c-6.9 6.891-16.5 10.801-27 10.801s-19.8-3.91-26.7-10.801c-10.8-10.801-12-29.097-12-45.609 0-16.488 1.2-34.789 12-45.59 6.9-6.9102 16.2-10.801 26.7-10.801s20.1 3.8906 27 10.801c10.81 10.801 11.7 29.102 11.7 45.59 0 16.512-0.89 34.808-11.7 45.609zm15.3-104.41c-10.2-10.188-24.3-16.789-42.3-16.789s-32.1 6.6016-42.3 16.789c-15 15.312-18 36-18 58.801 0 22.809 3 43.512 18 58.801 10.2 10.211 24.3 16.808 42.3 16.808s32.1-6.597 42.3-16.808c15-15.289 18.01-35.993 18.01-58.801 0-22.801-3.01-43.488-18.01-58.801"/><path d="m1749.2 1.7891v16.512c-10.5-12-25.21-18.301-41.7-18.301-15.9 0-29.1 4.7891-38.1 13.801-10.5 10.188-15 24.289-15 41.391v94.2h21.6v-90.903c0-26.098 13.8-39.289 35.99-39.289 22.21 0 36.91 13.492 36.91 39.289v90.903h21.6v-147.6h-21.3"/><path d="m1916 1.7891v90.902c0 26.11-14.1 39.309-36.3 39.309-22.21 0-36.6-13.512-36.6-39.309v-90.902h-21.61v147.6h21.61v-16.2c10.49 12 24.89 18.008 41.39 18.008 15.9 0 28.8-4.808 37.81-13.801 10.49-10.199 15.3-24 15.3-41.097v-94.512h-21.6"/><path d="m2044.4 0c-37.2 0-65.41 25.191-65.41 75.59 0 50.398 28.21 75.609 65.41 75.609 20.4 0 33.3-5.398 48.6-21.91l-14.7-13.789c-11.1 12.289-19.8 16.5-33.9 16.5-14.4 0-26.4-5.699-34.2-16.809-6.9-9.601-9.6-20.992-9.6-39.601 0-18.59 2.7-30 9.6-39.602 7.8-11.098 19.8-16.789 34.2-16.789 14.1 0 22.8 4.5 33.9 16.789l14.7-14.098c-15.3-16.492-28.2-21.891-48.6-21.891"/><path d="m2131.1 1.7891v147.6h21.61v-147.6zm-1.2 189.6v24.308h24.3v-24.308h-24.3"/><path d="m2240.9 1.7891c-25.8 0-37.5 16.801-37.5 39.301v174.31h21.61v-173.4c0-14.41 4.8-21.602 19.8-21.602h11.7v-18.609h-15.61"/></g></g></svg>
